<?xml version="1.0" encoding="iso-8859-1"?>
<!-- Generator: Adobe Illustrator 19.0.0, SVG Export Plug-In . SVG Version: 6.00 Build 0)  -->
<svg version="1.1" id="Layer_1" xmlns="http://www.w3.org/2000/svg" xmlns:xlink="http://www.w3.org/1999/xlink" x="0px" y="0px"
	 viewBox="0 0 480 480" style="enable-background:new 0 0 480 480;" xml:space="preserve">
<path style="fill:#0A79A0;" d="M392,72v88h-10.4c-5.6-16-11.2-34.4-17.6-43.2s-15.2-17.6-26.4-23.2c-6.4-3.2-17.6-5.6-32.8-5.6H280
	v262.4c0,16.8,0.8,28,2.4,32s5.6,8.8,11.2,12s12.8,5.6,22.4,5.6h12v8H152v-8h11.2c9.6,0,17.6-2.4,23.2-5.6c4-2.4,8-6.4,10.4-12
	c1.6-4,3.2-14.4,3.2-31.2V88h-24.8c-22.4,0-39.2,4.8-48.8,14.4C112,116,102.4,136,99.2,160H88V72H392z"/>
<path style="fill:#074568;" d="M224,72v336h104v-8h-12c-9.6,0-16.8-2.4-22.4-5.6s-8.8-7.2-11.2-12s-2.4-15.2-2.4-32V88h24.8
	c16,0,26.4,3.2,32.8,6.4c11.2,5.6,20,12,26.4,21.6c6.4,8.8,12,28.8,17.6,44.8H392V72H224z"/>
<g>
	<polygon style="fill:#1799BC;" points="16,88 0,88 0,16 72,16 72,32 16,32 	"/>
	<polygon style="fill:#1799BC;" points="464,88 480,88 480,16 408,16 408,32 464,32 	"/>
	<polygon style="fill:#1799BC;" points="464,392 480,392 480,464 408,464 408,448 464,448 	"/>
	<polygon style="fill:#1799BC;" points="16,392 0,392 0,464 72,464 72,448 16,448 	"/>
</g>
<g>
</g>
<g>
</g>
<g>
</g>
<g>
</g>
<g>
</g>
<g>
</g>
<g>
</g>
<g>
</g>
<g>
</g>
<g>
</g>
<g>
</g>
<g>
</g>
<g>
</g>
<g>
</g>
<g>
</g>
</svg>
